<svg width="170" height="31" viewBox="0 0 170 31" fill="none" xmlns="http://www.w3.org/2000/svg">
<path d="M159.187 30.7773C156.111 30.7773 153.584 29.7876 151.605 27.8084C149.652 25.8291 148.676 23.315 148.676 20.2659C148.676 17.2703 149.665 14.7828 151.645 12.8036C153.651 10.8243 156.178 9.83472 159.227 9.83472C162.303 9.83472 164.858 10.8912 166.89 13.0042C168.923 15.0904 169.859 17.9523 169.699 21.5898H154.052C154.159 22.8469 154.68 23.9034 155.617 24.7593C156.553 25.5884 157.837 26.003 159.468 26.003C160.458 26.003 161.327 25.8158 162.076 25.4413C162.852 25.0401 163.4 24.4918 163.721 23.7964H169.458C168.869 25.8559 167.639 27.5409 165.767 28.8515C163.895 30.1353 161.701 30.7773 159.187 30.7773ZM159.067 14.288C157.81 14.288 156.753 14.6223 155.897 15.291C155.068 15.9329 154.52 16.8289 154.252 17.979H163.681C163.386 16.722 162.798 15.7992 161.915 15.2108C161.059 14.5956 160.11 14.288 159.067 14.288Z" fill="#8AFF80"/>
<path d="M135.086 30.3363L126.22 10.2764H132.278L137.574 23.1147L142.869 10.2764H149.008L140.101 30.3363H135.086Z" fill="#8AFF80"/>
<path d="M104.776 30.335V15.0894H100.724V10.2751H104.776V7.66728C104.776 5.28684 105.499 3.41458 106.943 2.0505C108.387 0.686432 110.219 0.00439453 112.439 0.00439453C113.803 0.00439453 114.967 0.1515 115.93 0.445712V5.30021C115.288 5.05949 114.539 4.93913 113.683 4.93913C112.479 4.93913 111.61 5.2066 111.075 5.74153C110.54 6.24971 110.273 7.11897 110.273 8.34932V10.2751H115.93V15.0894H110.273V30.335H104.776ZM121.345 6.98524C120.409 6.98524 119.593 6.65091 118.898 5.98225C118.202 5.28684 117.854 4.45769 117.854 3.49482C117.854 2.53194 118.202 1.71617 118.898 1.04751C119.593 0.3521 120.409 0.00439453 121.345 0.00439453C122.335 0.00439453 123.164 0.3521 123.832 1.04751C124.528 1.71617 124.875 2.53194 124.875 3.49482C124.875 4.45769 124.528 5.28684 123.832 5.98225C123.164 6.65091 122.335 6.98524 121.345 6.98524ZM118.617 30.335V10.2751H124.113V30.335H118.617Z" fill="#8AFF80"/>
<path d="M64.2736 30.5728C62.0269 30.5728 60.1814 29.9577 58.737 28.7273C57.3195 27.4702 56.6107 25.6648 56.6107 23.3111V15.0866H52.5586V10.2722H56.6107V4.69556H62.1071V10.2722H67.764V15.0866H62.1071V22.2279C62.1071 23.4583 62.3746 24.3409 62.9095 24.8758C63.4444 25.384 64.3137 25.6381 65.5173 25.6381C66.3732 25.6381 67.1221 25.5177 67.764 25.277V30.1315C66.8011 30.4257 65.6377 30.5728 64.2736 30.5728Z" fill="#8AFF80"/>
<path d="M47.0756 6.98524C46.1395 6.98524 45.3237 6.65091 44.6283 5.98225C43.9329 5.28684 43.5852 4.4577 43.5852 3.49482C43.5852 2.53194 43.9329 1.71617 44.6283 1.04751C45.3237 0.3521 46.1395 0.00439453 47.0756 0.00439453C48.0653 0.00439453 48.8944 0.3521 49.5631 1.04751C50.2585 1.71617 50.6062 2.53194 50.6062 3.49482C50.6062 4.4577 50.2585 5.28684 49.5631 5.98225C48.8944 6.65091 48.0653 6.98524 47.0756 6.98524ZM44.3475 30.335V10.2751H49.8439V30.335H44.3475Z" fill="#8AFF80"/>
<path d="M36.1234 30.3363L31.4695 24.4387L26.8156 30.3363H20.1959L27.9791 20.5069L20.3965 10.2764H26.8959L31.4294 16.4147L35.9629 10.2764H42.5025L34.9198 20.5069L42.7031 30.3363H36.1234Z" fill="#8AFF80"/>
<path d="M10.5017 30.7773C7.42589 30.7773 4.89835 29.7876 2.9191 27.8084C0.966605 25.8291 -0.00964355 23.315 -0.00964355 20.2659C-0.00964355 17.2703 0.979978 14.7828 2.95922 12.8036C4.96521 10.8243 7.49276 9.83472 10.5419 9.83472C13.6177 9.83472 16.172 10.8912 18.2048 13.0042C20.2375 15.0904 21.1736 17.9523 21.0131 21.5898H5.36641C5.4734 22.8469 5.99495 23.9034 6.93108 24.7593C7.86721 25.5884 9.15105 26.003 10.7826 26.003C11.7722 26.003 12.6415 25.8158 13.3904 25.4413C14.166 25.0401 14.7143 24.4918 15.0353 23.7964H20.7724C20.184 25.8559 18.9537 27.5409 17.0814 28.8515C15.2091 30.1353 13.0159 30.7773 10.5017 30.7773ZM10.3814 14.288C9.1243 14.288 8.06781 14.6223 7.21192 15.291C6.38278 15.9329 5.83448 16.8289 5.56701 17.979H14.9952C14.701 16.722 14.1125 15.7992 13.2299 15.2108C12.374 14.5956 11.4245 14.288 10.3814 14.288Z" fill="#8AFF80"/>
<path d="M94.006 9.98853V30.3716H88.5073V24.0417C88.5073 23.324 88.6105 22.61 88.8137 21.9216L89.8588 18.3815L79.4908 29.4723L75.0474 25.2758L85.7116 14.4848L82.3793 15.3219C81.7828 15.4718 81.1701 15.5475 80.555 15.5475H74.455V9.98853H94.006Z" fill="#8AFF80"/>
</svg>
